<?xml version="1.0" encoding="utf-8"?>
<!-- Designed by Vexels.com - 2016 All Rights Reserved - https://vexels.com/terms-and-conditions/  -->

<svg version="1.0" id="Capa_1" xmlns="http://www.w3.org/2000/svg" xmlns:xlink="http://www.w3.org/1999/xlink" x="0px" y="0px"
	 width="1199.531px" height="1199.529px" viewBox="0 0 1199.531 1199.529" enable-background="new 0 0 1199.531 1199.529"
	 xml:space="preserve">
<g>
	<path fill="#EA262A" d="M1030.896,497.693c-45.922,253.695-440.492,481.842-465.621,496.123h-2.781
		c-24.94-14.145-415.224-239.129-463.314-493.012c-15.465-81.66,6.127-158.695,64.168-228.947
		c32.769-39.697,75.671-59.826,127.436-59.826c127.346,0,268.125,121.258,269.542,122.484l3.817,3.348l3.581-3.58
		c1.323-1.273,131.731-128.568,259.829-128.568c53.51,0,99.619,22.297,136.96,66.189
		C1023.211,340.93,1045.561,416.879,1030.896,497.693z"/>
	<g>
		<g>
			<path fill="#010101" d="M1031.854,264.809c-39.559-46.484-88.449-70.012-145.307-70.012
				c-122.068,0-241.396,106.928-263.881,128.195c-24.002-20.037-151.813-121.922-272.89-121.922
				c-55.208,0-100.89,21.449-135.874,63.789c-60.209,72.889-82.604,152.941-66.48,237.949
				c26.404,139.316,152.946,268.266,254.501,351.902c109.616,90.334,214.472,148.748,215.509,149.313l1.223,0.709h8.486l1.231-0.709
				c1.034-0.564,107.019-59.873,217.532-150.963c102.264-84.393,229.509-214.236,254.734-353.412
				C1115.912,415.443,1092.768,336.426,1031.854,264.809z M1089.889,497.67c-45.922,253.693-440.49,481.84-465.621,496.121h-2.781
				c-24.939-14.143-415.223-239.125-463.314-493.01c-15.464-81.66,6.129-158.695,64.172-228.947
				c32.766-39.695,75.668-59.826,127.433-59.826c127.347,0,268.124,121.262,269.542,122.484l3.818,3.348l3.582-3.582
				c1.32-1.27,131.729-128.566,259.828-128.566c53.508,0,99.619,22.297,136.959,66.189
				C1082.206,340.906,1104.554,416.857,1089.889,497.67z"/>
		</g>
	</g>
</g>
</svg>
